HIERARCHY
ROOT Hips
{
  OFFSET -4.35178 90.3298 111.633
  CHANNELS 6 Xposition Yposition Zposition Zrotation Xrotation Yrotation
  JOINT LeftUpLeg
  {
    OFFSET 0.103456 1.85784 10.5485
    CHANNELS 6 Xposition Yposition Zposition Zrotation Xrotation Yrotation
    JOINT LeftLeg
    {
      OFFSET 43.5 -4.2e-05 0
      CHANNELS 6 Xposition Yposition Zposition Zrotation Xrotation Yrotation
      JOINT LeftFoot
      {
        OFFSET 42.3722 1.9e-05 0
        CHANNELS 6 Xposition Yposition Zposition Zrotation Xrotation Yrotation
        JOINT LeftToe
        {
          OFFSET 17.3 0 0
          CHANNELS 6 Xposition Yposition Zposition Zrotation Xrotation Yrotation
          End Site
          {
            OFFSET 0 0 0
          }
        }
      }
    }
  }
  JOINT RightUpLeg
  {
    OFFSET 0.103456 1.85782 -10.5485
    CHANNELS 6 Xposition Yposition Zposition Zrotation Xrotation Yrotation
    JOINT RightLeg
    {
      OFFSET 43.5 -2.7e-05 0
      CHANNELS 6 Xposition Yposition Zposition Zrotation Xrotation Yrotation
      JOINT RightFoot
      {
        OFFSET 42.3723 0 0
        CHANNELS 6 Xposition Yposition Zposition Zrotation Xrotation Yrotation
        JOINT RightToe
        {
          OFFSET 17.3 0 1.7e-05
          CHANNELS 6 Xposition Yposition Zposition Zrotation Xrotation Yrotation
          End Site
          {
            OFFSET 0 0 0
          }
        }
      }
    }
  }
  JOINT Spine
  {
    OFFSET 6.90197 -2.60373 0
    CHANNELS 6 Xposition Yposition Zposition Zrotation Xrotation Yrotation
    JOINT Spine1
    {
      OFFSET 12.5881 0 0
      CHANNELS 6 Xposition Yposition Zposition Zrotation Xrotation Yrotation
      JOINT Spine2
      {
        OFFSET 12.3432 -1.8e-05 0
        CHANNELS 6 Xposition Yposition Zposition Zrotation Xrotation Yrotation
        JOINT Neck
        {
          OFFSET 25.8329 2.3e-05 0
          CHANNELS 6 Xposition Yposition Zposition Zrotation Xrotation Yrotation
          JOINT Head
          {
            OFFSET 11.7666 0 0
            CHANNELS 6 Xposition Yposition Zposition Zrotation Xrotation Yrotation
            End Site
            {
              OFFSET 0 0 0
            }
          }
        }
        JOINT LeftShoulder
        {
          OFFSET 19.7459 -1.48035 6.0001
          CHANNELS 6 Xposition Yposition Zposition Zrotation Xrotation Yrotation
          JOINT LeftArm
          {
            OFFSET 11.2841 1.8e-05 -2e-05
            CHANNELS 6 Xposition Yposition Zposition Zrotation Xrotation Yrotation
            JOINT LeftForeArm
            {
              OFFSET 33 -1.3e-05 1.9e-05
              CHANNELS 6 Xposition Yposition Zposition Zrotation Xrotation Yrotation
              JOINT LeftHand
              {
                OFFSET 25.2 3.2e-05 1.1e-05
                CHANNELS 6 Xposition Yposition Zposition Zrotation Xrotation Yrotation
                End Site
                {
                  OFFSET 0 0 0
                }
              }
            }
          }
        }
        JOINT RightShoulder
        {
          OFFSET 19.7461 -1.48036 -6.00008
          CHANNELS 6 Xposition Yposition Zposition Zrotation Xrotation Yrotation
          JOINT RightArm
          {
            OFFSET 11.2841 0 0
            CHANNELS 6 Xposition Yposition Zposition Zrotation Xrotation Yrotation
            JOINT RightForeArm
            {
              OFFSET 33.0001 1.6e-05 0
              CHANNELS 6 Xposition Yposition Zposition Zrotation Xrotation Yrotation
              JOINT RightHand
              {
                OFFSET 25.1998 0.000123 0.000432
                CHANNELS 6 Xposition Yposition Zposition Zrotation Xrotation Yrotation
                End Site
                {
                  OFFSET 0 0 0
                }
              }
            }
          }
        }
      }
    }
  }
}
MOTION
Frames:	6
Frame Time:	0.0333333
-50.9548 68.9783 4.27246 -61.0587 -84.8428 -151.213 0.103456 1.85784 10.5485 -56.7573 19.1602 176.523 43.5 -4.2e-05 1e-05 -71.5264 -12.0634 21.5446 42.3722 1.9e-05 7.10543e-15 78.8864 11.9082 -4.67384 17.3 0 3e-06 21.4546 -1e-06 0.003093 0.103456 1.85782 -10.5485 -26.3237 -11.2378 166.67 43.5 -2.7e-05 4e-06 -108.41 16.8725 7.34717 42.3723 0 1e-05 87.667 -17.9107 5.02552 17.3 -6e-06 1.7e-05 21.4546 -1.9e-05 -0.003116 6.90197 -2.60373 -3e-06 23.8117 -0.831934 -1.42707 12.5881 1e-05 8e-06 37.6182 -1.775 -2.43227 12.3432 -1.8e-05 -5e-06 37.3279 -1.36756 -2.39487 25.8329 2.3e-05 7e-06 0.811703 2.87631 -4.35712 11.7666 -8e-06 -6e-06 -61.7139 -14.8613 13.3127 19.7459 -1.48035 6.0001 -174.625 15.6452 -112.674 11.2841 1.8e-05 -2e-05 58.2499 -57.6216 108.04 33 -1.3e-05 1.9e-05 -99.6232 3.01983 -3.72166 25.2 3.2e-05 1.1e-05 -50.0977 42.1906 -3.72283 19.7461 -1.48036 -6.00008 -152.32 -16.0096 103.185 11.2841 -1.42109e-14 -1e-06 25.5163 65.6368 -75.6072 33.0001 1.6e-05 -1e-06 -128.087 -10.6899 22.4007 25.1998 0.000123 0.000432 -7.80454 -25.5317 23.2489 
-49.5689 69.2497 2.01749 -58.6165 -85.1458 -148.94 0.103456 1.85784 10.5485 -55.8706 17.9917 177.021 43.5 -4.2e-05 1e-05 -73.1859 -12.1749 21.3515 42.3722 1.9e-05 7.10543e-15 80.3947 10.711 -4.37475 17.3 -1.77636e-15 3e-06 21.4546 -1e-06 0.003093 0.103456 1.85782 -10.5485 -28.5915 -9.80051 165.088 43.5 -2.7e-05 4e-06 -110.907 15.6476 6.75132 42.3723 0 1e-05 88.6315 -17.3445 6.66615 17.3 -6e-06 1.7e-05 21.4546 -1.9e-05 -0.003116 6.90197 -2.60373 -3e-06 23.6573 -0.781189 -1.49023 12.5881 1e-05 8e-06 37.3077 -1.70388 -2.57787 12.3432 -1.8e-05 -5e-06 37.0166 -1.30982 -2.5425 25.8329 2.3e-05 7e-06 1.00988 2.83686 -4.32872 11.7666 -8e-06 -6e-06 -61.7229 -14.8861 13.3856 19.7459 -1.48035 6.0001 -174.715 16.1266 -112.696 11.2841 1.8e-05 -2e-05 56.8431 -57.9548 106.803 33 -1.3e-05 1.9e-05 -98.5893 3.41958 -3.85011 25.2 3.2e-05 1.1e-05 -49.3055 41.3364 -3.56482 19.7461 -1.48036 -6.00008 -152.109 -16.2019 102.799 11.2841 -1.42109e-14 -1e-06 24.5189 64.9571 -74.2446 33.0001 1.6e-05 -1e-06 -127.6 -11.1752 22.4828 25.1998 0.000123 0.000432 -7.98562 -26.1007 23.5503 
-48.2105 69.6039 0.0100876 -62.2241 -85.2171 -152.722 0.103456 1.85784 10.5485 -55.268 16.7155 177.806 43.5 -4.2e-05 1e-05 -74.5042 -12.0742 20.9804 42.3722 1.9e-05 0 81.5385 9.35189 -3.85945 17.3 2.66454e-15 3e-06 21.4546 -1e-06 0.003093 0.103456 1.85782 -10.5485 -31.6839 -8.14019 163.366 43.5 -2.7e-05 4e-06 -111.178 13.3693 6.20398 42.3723 -7.10543e-15 1e-05 89.135 -10.6533 2.85818 17.3 -6e-06 1.7e-05 21.4546 -1.9e-05 -0.003116 6.90197 -2.60373 -3e-06 23.5411 -0.725101 -1.56002 12.5881 1e-05 8e-06 37.0736 -1.62467 -2.73791 12.3432 -1.8e-05 -5e-06 36.7814 -1.24388 -2.70559 25.8329 2.3e-05 7e-06 1.02032 2.82652 -4.333 11.7666 -8e-06 -6e-06 -61.9274 -14.887 13.3679 19.7459 -1.48035 6.0001 -174.725 16.3769 -112.803 11.2841 1.8e-05 -2e-05 55.9823 -58.1587 105.941 33 -1.3e-05 1.9e-05 -98.1292 4.34225 -3.83881 25.2 3.2e-05 1.1e-05 -48.988 40.3374 -3.17543 19.7461 -1.48036 -6.00008 -151.913 -16.2212 102.575 11.2841 -1.42109e-14 -1e-06 23.6907 64.3829 -73.3922 33.0001 1.6e-05 -1e-06 -127.362 -11.2617 22.7087 25.1998 0.000123 0.000432 -7.91903 -26.5053 23.7943 
-47.1442 69.7896 -1.97633 -69.07 -85.3939 -159.502 0.103456 1.85784 10.5485 -54.8477 15.7888 177.98 43.5 -4.2e-05 1e-05 -75.6836 -12.463 20.959 42.3722 1.9e-05 0 82.6885 8.04795 -3.50011 17.3 -8.88178e-16 3e-06 21.4546 -1e-06 0.003093 0.103456 1.85782 -10.5485 -34.9436 -5.38888 160.063 43.5 -2.7e-05 4e-06 -108.737 8.16298 6.83395 42.3723 0 1e-05 88.4183 -3.55564 -3.96429 17.3 -6e-06 1.7e-05 21.4546 -1.9e-05 -0.003116 6.90197 -2.60373 -3e-06 23.3787 -0.766303 -1.52046 12.5881 1e-05 8e-06 36.7499 -1.68808 -2.6464 12.3432 -1.8e-05 -5e-06 36.4587 -1.30592 -2.60816 25.8329 2.3e-05 7e-06 0.966096 2.82798 -4.40349 11.7666 -8e-06 -6e-06 -62.2036 -14.9055 13.1845 19.7459 -1.48035 6.0001 -174.675 16.4199 -112.538 11.2841 1.8e-05 -2e-05 54.8917 -58.0152 105.178 33 -1.3e-05 1.9e-05 -97.941 4.65941 -3.85079 25.2 3.2e-05 1.1e-05 -49.8961 40.1901 -2.90006 19.7461 -1.48036 -6.00008 -151.99 -16.3698 102.193 11.2841 -1.42109e-14 -1e-06 22.8618 63.4413 -72.5503 33.0001 1.6e-05 -1e-06 -127.104 -11.4702 22.8374 25.1998 0.000123 0.000432 -8.04998 -26.606 23.6993 
-45.8588 70.162 -3.58661 -79.1622 -84.6846 -169.678 0.103456 1.85784 10.5485 -54.6675 14.5419 179.509 43.5 -4.2e-05 1e-05 -76.8501 -11.8791 19.8514 42.3722 1.9e-05 0 83.4581 6.72379 -2.44867 17.3 8.88178e-16 3e-06 21.4546 -1e-06 0.003093 0.103456 1.85782 -10.5485 -39.2072 -3.21217 157.855 43.5 -2.7e-05 4e-06 -104.718 5.53916 6.33723 42.3723 3.55271e-15 1e-05 89.2582 4.89406 -12.2352 17.3 -6e-06 1.7e-05 21.4546 -1.9e-05 -0.003116 6.90197 -2.60373 -3e-06 23.3423 -0.735066 -1.57427 12.5881 1e-05 8e-06 36.676 -1.64994 -2.76401 12.3432 -1.8e-05 -5e-06 36.3843 -1.27615 -2.72742 25.8329 2.3e-05 7e-06 0.692667 2.8589 -4.48522 11.7666 -8e-06 -6e-06 -62.639 -14.774 13.0194 19.7459 -1.48035 6.0001 -174.6 16.342 -112.681 11.2841 1.8e-05 -2e-05 55.0254 -57.8484 105.211 33 -1.3e-05 1.9e-05 -98.0451 4.29749 -3.87604 25.2 3.2e-05 1.1e-05 -50.6303 41.0414 -3.10565 19.7461 -1.48036 -6.00008 -151.858 -16.2354 101.957 11.2841 -1.42109e-14 -1e-06 22.9725 63.3441 -72.9987 33.0001 1.6e-05 -1e-06 -126.911 -11.6755 22.9958 25.1998 0.000123 0.000432 -8.1058 -27.0446 23.967 
-44.4767 70.4394 -5.05505 -86.3761 -83.5794 -176.971 0.103456 1.85784 10.5485 -54.5717 13.2901 -178.628 43.5 -4.2e-05 1e-05 -78.1406 -11.0983 18.5455 42.3722 1.9e-05 7.10543e-15 84.0237 5.59122 -1.26515 17.3 -8.88178e-16 3e-06 21.4546 -1e-06 0.003093 0.103456 1.85782 -10.5485 -43.2373 -0.990697 156.049 43.5 -2.7e-05 4e-06 -99.22 4.93532 5.18655 42.3723 0 1e-05 90.913 11.1659 -17.7259 17.3 -6e-06 1.7e-05 21.4546 -1.9e-05 -0.003116 6.90197 -2.60373 -3e-06 23.3211 -0.669277 -1.60601 12.5881 1e-05 8e-06 36.6325 -1.53577 -2.85297 12.3432 -1.8e-05 -5e-06 36.3391 -1.16831 -2.82302 25.8329 2.3e-05 7e-06 0.434687 2.90648 -4.5796 11.7666 -8e-06 -6e-06 -63.0819 -14.429 12.8943 19.7459 -1.48035 6.0001 -174.628 16.2221 -112.915 11.2841 1.8e-05 -2e-05 55.4645 -57.5801 105.554 33 -1.3e-05 1.9e-05 -97.9852 3.79671 -3.94232 25.2 3.2e-05 1.1e-05 -50.9876 41.71 -3.30225 19.7461 -1.48036 -6.00008 -151.669 -16.0997 101.648 11.2841 0 -1e-06 23.7116 63.1935 -74.0375 33.0001 1.6e-05 -1e-06 -126.86 -11.6635 23.1949 25.1998 0.000123 0.000432 -8.07776 -27.2293 24.0575 
